<svg xmlns="http://www.w3.org/2000/svg" class="forms" viewBox="0 0 16 16" style="width:100%;height:100%;display:block;fill:inherit;flex-shrink:0"><defs/><g id="f"><path d="m10,6.64l-.27.25c-.06.05-.1.11-.14.17l-.94,1.53c-.16.2.09.47.3.33l1.61-.8c.07-.03.13-.08.18-.13l.27-.25-1.01-1.11Z"/></g><path id="g" d="m14.09,2.89l-3.54,3.24,1.01,1.11,3.54-3.24c.59-.54.57-.79.19-1.19s-.65-.42-1.21.09Z"/><g><path d="m12.32,4.51l-1.6,1.47h1.28c.25,0,.44.18.48.42l1.16-1.06c-.3-.43-.77-.74-1.32-.83Z"/><path d="m12.5,7.74v2.69c0,.3-.25.55-.55.55H3.55c-.31,0-.55-.25-.55-.55v-3.84c0-.33.27-.61.61-.61h5.63l.64-.59,1-.91H3.05c-.86,0-1.55.69-1.55,1.55v4.89c0,.86.7,1.56,1.56,1.56h9.39c.86,0,1.55-.7,1.55-1.55v-4.45s0-.07-.01-.11l-1.49,1.36Z"/></g><path d="m7.38,8.98h-2.62c-.28,0-.5-.22-.5-.5s.22-.5.5-.5h2.62c.28,0,.5.22.5.5s-.22.5-.5.5Z"/></svg>