<svg width="365" height="100" viewBox="0 0 365 100" fill="none" xmlns="http://www.w3.org/2000/svg">
<path d="M66.5009 94.0144C61.6872 94.8597 56.7888 95.1131 51.7216 95.7881L36.2659 50.5206V97.7309C31.4522 98.2375 27.0606 98.9131 22.5 99.5887V13.1069H35.3375L52.9037 62.1759V13.1069H66.5009V94.0144ZM93.1044 44.7775C98.3409 44.7775 106.364 44.5241 111.178 44.5241V58.0366C105.181 58.0366 98.1719 58.0366 93.1044 58.29V78.3906C101.043 77.8841 108.982 77.2078 117.005 76.9544V89.9597L79.5913 92.9162V13.1069H117.005V26.6197H93.1044V44.7775ZM167.256 26.62H153.236V88.7787C148.676 88.7787 144.115 88.7787 139.724 88.9472V26.62H125.705V13.1069H167.256L167.256 26.62ZM189.214 43.8487H207.71V57.3612H189.214V88.0187H175.953V13.1069H213.706V26.6197H189.214V43.8487ZM235.664 76.1947C243.35 76.3631 251.119 76.9553 258.636 77.3769V90.7209C246.559 89.9603 234.482 89.2012 222.152 88.9472V13.1069H235.664V76.1947ZM270.037 91.65C274.344 91.9037 278.905 92.1572 283.297 92.6631V13.1069H270.037V91.65ZM342.5 13.1069L325.355 54.2366L342.5 99.5887C337.432 98.9131 332.365 97.9841 327.297 97.1394L317.586 72.1412L307.705 95.1131C302.806 94.2678 298.077 94.0144 293.179 93.3387L310.577 53.7294L294.867 13.1069H309.393L318.261 35.8253L327.72 13.1069L342.5 13.1069Z" fill="#888888"/>
</svg>
