<svg
	width="101"
	height="31"
	viewBox="0 0 101 31"
	fill="none"
	xmlns="http://www.w3.org/2000/svg"
>
<g clip-path="url(#clip0_8466_2766)">
<path
			d="M74.6288 11.5292H73.2056C73.0511 11.5252 72.9135 11.6265 72.8717 11.775C72.8014 11.9856 72.7487 12.1261 72.7311 12.2138C72.1688 13.9336 71.3078 16.5308 70.1833 19.9879C70.1657 20.0405 70.0954 20.2336 69.9548 20.5494C69.9149 20.6356 69.8138 20.6744 69.7264 20.6372C69.689 20.6174 69.6584 20.5868 69.6385 20.5494C69.5155 20.2686 69.4452 20.0932 69.4101 19.9879C68.2504 16.4255 67.3893 13.7522 66.827 11.9681C66.802 11.9121 66.7843 11.8532 66.7744 11.7927C66.7285 11.6469 66.5934 11.5475 66.4405 11.5469H65.0347C64.8407 11.5469 64.6834 11.7041 64.6834 11.898C64.6805 11.9339 64.6866 11.9701 64.7009 12.0032C64.7125 12.0521 64.7302 12.0992 64.7536 12.1436C65.6322 14.6355 66.9501 18.3617 68.7072 23.3221C68.7085 23.3356 68.7148 23.3481 68.7248 23.3573C68.7511 23.425 68.7511 23.5001 68.7248 23.5678C68.7248 23.5854 68.7248 23.5854 68.7072 23.6029C68.6897 23.6731 68.6545 23.7609 68.637 23.831C68.3876 24.5199 67.7362 24.9816 67.0028 24.9892H65.5268C65.3327 24.9892 65.1753 25.1464 65.1753 25.3403V26.516C65.1753 26.7098 65.3327 26.867 65.5268 26.867H67.0028C68.435 26.865 69.7309 26.0183 70.3063 24.7085C70.3225 24.6529 70.3462 24.5998 70.3765 24.5505C70.3941 24.4979 71.4308 21.5673 74.8924 11.898C74.9176 11.8328 74.9149 11.7603 74.885 11.6973C74.8552 11.6343 74.8006 11.5862 74.7343 11.5644C74.6816 11.5469 74.664 11.5292 74.6288 11.5292ZM55.8976 21.5146C56.2317 21.625 56.5823 21.6784 56.9342 21.6726C57.9797 21.6581 58.9798 21.2435 59.7281 20.5144C60.2754 19.9659 60.5739 19.2176 60.554 18.4436V17.531C60.5552 17.4823 60.5339 17.4357 60.4961 17.4049C60.4582 17.374 60.4083 17.3622 60.3607 17.3731C60.185 17.3907 60.0971 17.3907 60.0971 17.3907L58.9901 17.531L56.7937 17.8644C55.6163 18.0575 54.8959 18.5314 54.6676 19.2684C54.6113 19.4444 54.5817 19.6277 54.5797 19.8124C54.6006 20.606 55.1338 21.2946 55.8976 21.5146ZM62.522 22.2868V22.9887C62.522 23.1826 62.3647 23.3397 62.1706 23.3397H61.0284C60.8344 23.3397 60.677 23.1826 60.677 22.9887L60.6594 21.8305C60.6564 21.8121 60.6505 21.7944 60.6419 21.7779C60.6259 21.7609 60.6037 21.7513 60.5804 21.7513C60.557 21.7513 60.5348 21.7609 60.5188 21.7779C60.45 21.8377 60.3855 21.9021 60.3256 21.9709C59.4118 22.8834 58.1643 23.3397 56.5477 23.3397C55.388 23.3397 54.4391 23.0238 53.7011 22.4096C52.9631 21.7954 52.6116 20.9355 52.6116 19.8475C52.5985 19.3268 52.7068 18.8101 52.9279 18.3383C53.1157 17.941 53.407 17.6015 53.7714 17.3556C54.0843 17.1326 54.4275 16.9553 54.7905 16.8291C55.1161 16.7126 55.4512 16.6245 55.7921 16.5659C57.4965 16.3202 58.4103 16.1974 58.586 16.1622C58.7265 16.1447 59.2888 16.0745 60.2553 15.9341C60.3187 15.9203 60.3837 15.9144 60.4486 15.9166C60.5364 15.9032 60.6027 15.8297 60.6067 15.7411V15.2497C60.6067 14.5127 60.4134 13.9336 60.0269 13.5299C59.6403 13.1263 58.9199 12.9157 57.8831 12.9157C57.4074 12.9071 56.9332 12.9722 56.4774 13.1088C56.1304 13.2144 55.8199 13.415 55.5812 13.6879C55.421 13.8905 55.2908 14.115 55.1946 14.3547C55.1771 14.4074 55.1595 14.46 55.142 14.5303C55.1443 14.5495 55.1378 14.5688 55.1244 14.5829C55.0905 14.7489 54.9426 14.8671 54.7729 14.8637H53.4551C53.2643 14.8471 53.1187 14.6863 53.1212 14.4951V14.425C53.1387 14.2845 53.1564 14.1792 53.174 14.0915C53.2617 13.7521 53.3978 13.4271 53.5781 13.1263C53.7887 12.7903 54.0563 12.4933 54.3688 12.2489C54.7872 11.9634 55.2505 11.7498 55.7393 11.6171C56.4112 11.4471 57.1023 11.3645 57.7952 11.3715C60.9758 11.3715 62.522 12.635 62.522 15.1971V22.2868ZM88.5804 11.7927V22.9536C88.5804 23.1474 88.7376 23.3046 88.9325 23.3046H90.3556C90.5496 23.3046 90.7069 23.1474 90.7069 22.9536V11.7927C90.7069 11.5988 90.5496 11.4416 90.3556 11.4416H88.9325C88.7376 11.4416 88.5804 11.5988 88.5804 11.7927ZM88.5804 8.24778V9.66923C88.5804 9.86308 88.7376 10.0202 88.9325 10.0202H90.3556C90.5496 10.0202 90.7069 9.86308 90.7069 9.66923V8.24778C90.7069 8.05394 90.5496 7.8968 90.3556 7.8968H88.9325C88.7376 7.8968 88.5804 8.05394 88.5804 8.24778ZM97.3487 13.3018H100.354C100.548 13.3018 100.705 13.1447 100.705 12.9509V11.775C100.705 11.5812 100.548 11.4241 100.354 11.4241H97.3487C97.3017 11.4273 97.2547 11.4097 97.2214 11.3762C97.1872 11.3426 97.1701 11.2961 97.1735 11.2486V8.24778C97.1735 8.05394 97.0163 7.8968 96.8214 7.8968H95.3983C95.2043 7.8968 95.047 8.05394 95.047 8.24778V11.2662C95.0504 11.3136 95.0325 11.3601 94.9992 11.3937C94.965 11.4273 94.9188 11.4448 94.871 11.4416H93.571C93.3769 11.4416 93.2197 11.5988 93.2197 11.7927V12.9684C93.2197 13.1622 93.3769 13.3193 93.571 13.3193H94.871C94.9188 13.3162 94.965 13.3337 94.9992 13.3674C95.0325 13.4009 95.0504 13.4474 95.047 13.4949V19.8299C95.1128 21.7619 96.6957 23.2962 98.6316 23.3046H100.231C100.425 23.3046 100.582 23.1474 100.582 22.9536V21.7779C100.582 21.584 100.425 21.4268 100.231 21.4268H98.6316C98.2402 21.4274 97.8641 21.2722 97.5872 20.9956C97.3103 20.7191 97.1556 20.3438 97.1556 19.9527V13.4773C97.1701 13.3805 97.2513 13.3074 97.3487 13.3018ZM50.9951 12.6876C50.9975 10.0815 48.9123 7.95221 46.3034 7.8968H39.5384C39.3443 7.8968 39.187 8.05394 39.187 8.24778V22.9536C39.187 23.1474 39.3443 23.3046 39.5384 23.3046H40.9617C41.1558 23.3046 41.3131 23.1474 41.3131 22.9536V17.6715C41.3099 17.624 41.3275 17.5775 41.3611 17.5439C41.3948 17.5103 41.4413 17.4928 41.4888 17.496H46.3034C48.9131 17.4266 50.9931 15.2948 50.9951 12.6876ZM49.1325 12.6876C49.1305 14.2956 47.8258 15.5987 46.2156 15.6007H41.5064C41.4589 15.6038 41.4123 15.5863 41.3787 15.5527C41.3451 15.5191 41.3275 15.4727 41.3307 15.4252V9.95C41.3275 9.90257 41.3451 9.85607 41.3787 9.82248C41.4123 9.78889 41.4589 9.77137 41.5064 9.77453H46.2156C47.8258 9.77641 49.1305 11.0796 49.1325 12.6876ZM79.2853 17.4433H84.6271C84.8212 17.4433 84.9786 17.2862 84.9786 17.0923V15.9166C84.9786 15.7227 84.8212 15.5656 84.6271 15.5656H79.2853C79.2378 15.5687 79.1913 15.5513 79.1576 15.5176C79.124 15.484 79.1065 15.4375 79.1096 15.3901V9.95C79.1065 9.90257 79.124 9.85607 79.1576 9.82248C79.1913 9.78889 79.2378 9.77137 79.2853 9.77453H85.8395C86.0336 9.77453 86.1906 9.61735 86.1906 9.42351V8.24778C86.1906 8.05394 86.0336 7.8968 85.8395 7.8968H77.3349C77.1408 7.8968 76.9834 8.05394 76.9834 8.24778V22.9536C76.9834 23.1474 77.1408 23.3046 77.3349 23.3046H78.7582C78.9522 23.3046 79.1096 23.1474 79.1096 22.9536V17.6188C79.1096 17.5219 79.1883 17.4433 79.2853 17.4433Z"
			fill="#0F6FDE"
		/>
<path
			fill-rule="evenodd"
			clip-rule="evenodd"
			d="M16.1098 30.7692C7.60205 30.7692 0.705139 23.8813 0.705139 15.3846C0.705139 6.88792 7.60205 0 16.1098 0C24.6175 0 31.5145 6.88792 31.5145 15.3846C31.5145 23.8813 24.6175 30.7692 16.1098 30.7692ZM15.8998 20.8567V17.7972C15.8966 17.7499 15.914 17.7037 15.9476 17.6702C15.9811 17.6367 16.0274 17.6192 16.0748 17.6224H19.6633C22.1933 17.5203 24.1904 15.4399 24.1857 12.9112C24.181 10.3825 22.1762 8.30943 19.6459 8.21679H10.8582C10.6649 8.21679 10.5081 8.37332 10.5081 8.56641V20.9091C10.5081 22.396 11.7151 23.6014 13.2039 23.6014C14.6927 23.6014 15.8998 22.396 15.8998 20.9091C15.9231 20.8741 15.9231 20.8567 15.8998 20.8567ZM16.0748 13.6014H19.4709C19.8575 13.6014 20.171 13.2883 20.171 12.9021C20.171 12.5159 19.8575 12.2028 19.4709 12.2028H14.8669C14.6736 12.2028 14.5168 12.3593 14.5168 12.5525V20.8916C14.5168 21.6157 13.929 22.2028 13.2039 22.2028C12.4788 22.2028 11.891 21.6157 11.891 20.8916V9.77273C11.8879 9.72547 11.9053 9.67914 11.9389 9.64564C11.9724 9.61222 12.0187 9.59479 12.0661 9.59786H19.4709C20.6591 9.57607 21.7688 10.189 22.3819 11.2057C22.995 12.2226 23.0183 13.4888 22.4432 14.5274C21.868 15.5661 20.7816 16.2194 19.5933 16.2413H16.0748C16.0274 16.2444 15.9811 16.227 15.9476 16.1935C15.914 16.16 15.8966 16.1137 15.8998 16.0664V13.7937C15.8993 13.6939 15.9753 13.6104 16.0748 13.6014Z"
			fill="#0F6FDE"
		/>
</g>
<defs>
<clipPath id="clip0_8466_2766">
<rect
				width="100"
				height="30.7692"
				fill="white"
				transform="translate(0.705139)"
			/>
</clipPath>
</defs>
</svg>
