<svg
	width="86"
	height="25"
	viewBox="0 0 86 25"
	fill="none"
	xmlns="http://www.w3.org/2000/svg"
>
<g clip-path="url(#clip0_8466_2758)">
<path
			d="M44.1168 23.6059H47.3743V14.4079C47.3743 12.2005 48.9565 10.453 51.0041 10.453C53.0518 10.453 54.8202 12.1085 54.8202 14.4079V23.6059H58.3569V14.224C58.3569 10.2689 55.0994 7.23366 51.5626 7.23366C50.2596 7.23366 48.5842 7.69355 47.3743 9.34916V7.60157H44.1168V23.6059Z"
			fill="#1D1D1B"
		/>
<path
			d="M77.4373 7.23366C72.6905 7.23366 68.9675 11.0048 68.9675 15.6957C68.9675 20.4785 72.5974 23.9738 77.4373 23.9738C82.2771 23.9738 86.0001 20.4785 86.0001 15.6957C86.0001 11.0048 82.3702 7.23366 77.4373 7.23366ZM77.4373 20.6626C74.7381 20.6626 72.5974 18.455 72.5974 15.6957C72.5974 12.7524 74.8312 10.6369 77.4373 10.6369C80.2295 10.6369 82.4633 12.7524 82.4633 15.6957C82.4633 18.455 80.3226 20.6626 77.4373 20.6626Z"
			fill="#1D1D1B"
		/>
<path
			d="M68.4092 23.6058V20.2026C65.9893 21.3983 63.6625 20.4785 63.6625 17.8112V10.8208H68.0369V7.60155H63.6625V3.46251H60.2188V17.2593C60.2188 22.962 64.1279 24.8936 68.4092 23.6058Z"
			fill="#1D1D1B"
		/>
<path
			d="M33.6926 7.23366C28.9458 7.23366 25.2229 11.0048 25.2229 15.6957C25.2229 20.4785 28.8527 23.9738 33.6926 23.9738C38.5324 23.9738 42.2554 20.4785 42.2554 15.6957C42.2554 11.0048 38.6254 7.23366 33.6926 7.23366ZM33.6926 20.6626C30.9934 20.6626 28.8527 18.455 28.8527 15.6957C28.8527 12.7524 30.9934 10.6369 33.6926 10.6369C36.4848 10.6369 38.7185 12.7524 38.7185 15.6957C38.7185 18.455 36.4848 20.6626 33.6926 20.6626Z"
			fill="#1D1D1B"
		/>
<path
			d="M11.8203 0.243439C5.11905 0.243439 0 5.30226 0 12.2007C0 18.8231 5.11905 24.0659 11.8203 24.0659C18.7078 24.0659 23.8269 18.8231 23.8269 12.2926C23.8269 5.30226 18.7078 0.243439 11.8203 0.243439ZM11.8203 20.4787C7.16667 20.4787 3.72294 16.9836 3.72294 12.2007C3.72294 7.23381 7.16667 3.55467 11.8203 3.55467C16.5671 3.55467 20.0108 7.23381 20.0108 12.1087C20.0108 16.9836 16.5671 20.4787 11.8203 20.4787Z"
			fill="#1D1D1B"
		/>
<path
			d="M23.2684 24.5258C16.567 23.7899 12.2857 20.4787 10.145 14.2242L13.4956 13.1205C15.1709 18.0873 18.3354 20.5707 23.6406 21.1226L23.2684 24.5258Z"
			fill="#1D1D1B"
		/>
</g>
<defs>
<clipPath id="clip0_8466_2758">
<rect
				width="86"
				height="24.2824"
				fill="white"
				transform="translate(0 0.243439)"
			/>
</clipPath>
</defs>
</svg>
