<svg
	width="100"
	height="31"
	viewBox="0 0 100 31"
	fill="none"
	xmlns="http://www.w3.org/2000/svg"
>
<path
		d="M0.527954 10.6045H5.11149V21.9228H7.71062V10.6045H12.3117V8.65514H0.527954V10.6045Z"
		fill="#00665C"
	/>
<path
		d="M16.0129 8.6619H13.4841V21.9228H16.0129V17.0759C16.0129 14.6875 17.6462 13.2299 19.1213 13.2299C20.1223 13.2299 20.8599 13.8796 20.8599 15.1968V21.9228H23.3887V14.389C23.3887 12.2465 21.9663 11.2103 20.2804 11.2103C18.5417 11.2103 16.7153 12.3694 16.0129 14.5119V8.6619Z"
		fill="#00665C"
	/>
<path
		fill-rule="evenodd"
		clip-rule="evenodd"
		d="M24.6228 16.5841C24.6228 13.8972 26.3439 11.2103 29.821 11.2103C32.6308 11.2103 34.1236 12.9138 34.1236 16.11V16.6017H26.7478C27.0287 18.27 28.3107 19.5871 30.4708 19.5871C31.7703 19.5871 33.1577 19.113 34.2992 18.1997V20.6759C32.9996 21.6418 31.5245 22.116 30.0669 22.116C26.6599 22.116 24.6228 19.6047 24.6228 16.5841ZM31.5596 15.3724C31.5596 13.5987 30.8396 12.7206 29.4873 12.7206C27.8717 12.7206 26.9233 13.9499 26.7302 15.3724H31.5596Z"
		fill="#00665C"
	/>
<path
		d="M45.019 8.65514H35.5884V21.9228H38.2051V15.8378H44.1408V13.8884H38.2051V10.6045H45.019V8.65514Z"
		fill="#00665C"
	/>
<path
		fill-rule="evenodd"
		clip-rule="evenodd"
		d="M45.2555 16.6895C45.2555 13.9675 47.2049 11.2103 50.963 11.2103C54.6508 11.2103 56.565 13.9148 56.565 16.6368C56.565 19.3763 54.6158 22.116 50.8576 22.116C47.1873 22.116 45.2555 19.3939 45.2555 16.6895ZM51.0332 20.1666C52.965 20.1666 53.9835 18.6212 53.9835 16.7948C53.9835 14.8806 52.8772 13.1597 50.7874 13.1597C48.8556 13.1597 47.837 14.705 47.837 16.5139C47.837 18.4456 48.9434 20.1666 51.0332 20.1666Z"
		fill="#00665C"
	/>
<path
		d="M60.1349 11.386H57.7992V21.9229H60.3281V15.5656C60.8549 14.266 62.1017 13.5636 63.3837 13.5636C64.0687 13.5636 64.7887 13.7568 65.3331 14.1431V11.6669C64.9116 11.4036 64.3672 11.2455 63.8228 11.2455C62.2423 11.2455 60.6969 12.2465 60.1349 14.6348V11.386Z"
		fill="#00665C"
	/>
<path
		d="M71.3766 15.6399L76.391 10.3008H73.5233L69.1513 14.8098L69.15 8.65514H66.6224V21.9228H69.1683L69.15 16.5119C69.15 16.5119 73.3406 16.409 73.3406 21.9228H76.0813C76.0813 16.5842 71.3766 15.6399 71.3766 15.6399Z"
		fill="#00665C"
	/>
<path
		d="M78.5834 15.4757C78.5887 10.5663 82.1962 5.62592 89.2977 5.62592C96.2143 5.62592 99.815 10.6214 99.7338 15.3523C99.6398 20.8364 95.9842 23.6733 92.7098 24.6933L92.3361 23.0581C92.1413 22.2008 92.3729 21.4361 92.9797 20.8956C93.7631 20.1966 94.2301 19.3324 94.4729 18.1373C94.7293 16.8739 94.609 15.4872 94.0391 14.1023L92.1022 8.65536H90.1594L91.712 14.8775C91.8541 15.4973 91.3834 16.0884 90.7474 16.0884L88.8609 7.81519H87.0955L88.794 18.0251C87.7301 18.1205 87.3361 17.4305 87.2481 16.9312L86.1646 9.22025H84.3707C84.3707 9.22025 84.3819 13.3744 84.3819 16.2114C84.3819 20.3813 86.6105 21.6226 88.1496 21.9929C89.0203 22.2023 89.6022 22.8793 89.7601 23.8299L89.9789 25.1433C86.6819 25.1518 78.5744 23.9248 78.5834 15.4757Z"
		fill="#00665C"
	/>
</svg>
